<svg width="72" height="36" viewBox="0 0 72 36" fill="none" xmlns="http://www.w3.org/2000/svg">
<path d="M68.0898 13.8183V24.7525C70.2896 23.8264 71.7201 21.6721 71.7201 19.2854C71.7201 16.8987 70.2896 14.7444 68.0898 13.8183" fill="white"/>
<path fill-rule="evenodd" clip-rule="evenodd" d="M11.2676 0.984314C5.54409 0.984314 0.904297 5.62411 0.904297 11.3476V24.3017C0.904297 30.0252 5.5441 34.665 11.2676 34.665H55.3115C61.035 34.665 65.6748 30.0252 65.6748 24.3017V11.3476C65.6748 5.62411 61.035 0.984314 55.3115 0.984314H11.2676ZM13.9898 11.3288V25.8642H17.8102V7.60957H14.0024L9.28379 10.8607V14.4155L13.7621 11.3288H13.9898ZM30.0595 26.3323C32.3198 26.3323 34.0908 25.4847 35.3727 23.7895C36.6631 22.0859 37.3083 19.7287 37.3083 16.7179C37.3083 13.7071 36.6631 11.3583 35.3727 9.6716C34.0824 7.98487 32.3113 7.14151 30.0595 7.14151C27.7993 7.14151 26.024 7.98487 24.7337 9.6716C23.4518 11.3499 22.8108 13.6945 22.8108 16.7053C22.8108 19.7245 23.4518 22.0859 24.7337 23.7895C26.024 25.4847 27.7993 26.3323 30.0595 26.3323ZM30.0595 23.2203C28.9969 23.2203 28.1662 22.6594 27.5674 21.5378C26.977 20.4161 26.6819 18.8053 26.6819 16.7053C26.6819 14.6222 26.9813 13.0282 27.58 11.9234C28.1788 10.8186 29.0053 10.2662 30.0595 10.2662C31.1222 10.2662 31.9487 10.8186 32.539 11.9234C33.1378 13.0198 33.4372 14.6137 33.4372 16.7053C33.4372 18.8137 33.1378 20.4287 32.539 21.5504C31.9487 22.6637 31.1222 23.2203 30.0595 23.2203ZM47.951 26.3323C50.2112 26.3323 51.9823 25.4847 53.2642 23.7895C54.5545 22.0859 55.1997 19.7287 55.1997 16.7179C55.1997 13.7071 54.5545 11.3583 53.2642 9.6716C51.9738 7.98487 50.2028 7.14151 47.951 7.14151C45.6908 7.14151 43.9155 7.98487 42.6251 9.6716C41.3432 11.3499 40.7022 13.6945 40.7022 16.7053C40.7022 19.7245 41.3432 22.0859 42.6251 23.7895C43.9155 25.4847 45.6908 26.3323 47.951 26.3323ZM47.951 23.2203C46.8883 23.2203 46.0576 22.6594 45.4588 21.5378C44.8685 20.4161 44.5733 18.8053 44.5733 16.7053C44.5733 14.6222 44.8727 13.0282 45.4715 11.9234C46.0703 10.8186 46.8968 10.2662 47.951 10.2662C49.0136 10.2662 49.8401 10.8186 50.4305 11.9234C51.0293 13.0198 51.3287 14.6137 51.3287 16.7053C51.3287 18.8137 51.0293 20.4287 50.4305 21.5504C49.8401 22.6637 49.0136 23.2203 47.951 23.2203Z" fill="white"/>
</svg>
