<svg width="48" height="32" viewBox="0 0 48 32" fill="none" xmlns="http://www.w3.org/2000/svg">
<path d="M26.4629 8.37897C26.4629 6.9481 27.6229 5.78815 29.0538 5.78815H31.6446C33.0755 5.78815 34.2354 6.9481 34.2354 8.37897V29.1055C34.2354 30.5364 33.0755 31.6963 31.6446 31.6963H29.0538C27.6229 31.6963 26.4629 30.5364 26.4629 29.1055V8.37897Z" fill="white"/>
<path d="M39.417 3.19733C39.417 1.76646 40.577 0.606506 42.0079 0.606506H44.5987C46.0296 0.606506 47.1895 1.76646 47.1895 3.19733V29.1055C47.1895 30.5364 46.0296 31.6963 44.5987 31.6963H42.0079C40.577 31.6963 39.417 30.5364 39.417 29.1055V3.19733Z" fill="white"/>
<path d="M13.5088 17.4468C13.5088 16.016 14.6688 14.856 16.0997 14.856H18.6905C20.1214 14.856 21.2813 16.016 21.2813 17.4468V29.1055C21.2813 30.5364 20.1214 31.6963 18.6905 31.6963H16.0997C14.6688 31.6963 13.5088 30.5364 13.5088 29.1055V17.4468Z" fill="white"/>
<path d="M0.554749 23.9239C0.554749 22.493 1.7147 21.3331 3.14557 21.3331H5.73639C7.16726 21.3331 8.32721 22.493 8.32721 23.9239V29.1055C8.32721 30.5364 7.16726 31.6963 5.73639 31.6963H3.14557C1.7147 31.6963 0.554749 30.5364 0.554749 29.1055V23.9239Z" fill="white"/>
</svg>
