<svg width="45" height="32" viewBox="0 0 45 32" fill="none" xmlns="http://www.w3.org/2000/svg">
<path fill-rule="evenodd" clip-rule="evenodd" d="M22.9393 7.31032C29.3297 7.31061 35.4757 9.817 40.1071 14.3115C40.4558 14.6585 41.0133 14.6541 41.3568 14.3017L44.6906 10.8673C44.8645 10.6886 44.9614 10.4464 44.96 10.1945C44.9586 9.9426 44.8588 9.70164 44.6829 9.52498C32.527 -2.36632 13.3496 -2.36632 1.19372 9.52498C1.01763 9.70151 0.91772 9.94239 0.916097 10.1943C0.914473 10.4462 1.01127 10.6884 1.18506 10.8673L4.51981 14.3017C4.86308 14.6546 5.42095 14.659 5.7695 14.3115C10.4015 9.81671 16.5482 7.31031 22.9393 7.31032ZM23.0311 17.6784C26.5422 17.6782 29.928 19.0103 32.5306 21.4159C32.8827 21.7573 33.4372 21.7499 33.7803 21.3993L37.1103 17.9649C37.2856 17.7848 37.3829 17.5404 37.3804 17.2865C37.3779 17.0325 37.2757 16.7902 37.0968 16.6137C29.1713 9.08847 16.8976 9.08847 8.97209 16.6137C8.79307 16.7902 8.69093 17.0326 8.68858 17.2867C8.68623 17.5407 8.78387 17.785 8.9596 17.9649L12.2886 21.3993C12.6317 21.7499 13.1862 21.7573 13.5383 21.4159C16.1392 19.0119 19.5223 17.6799 23.0311 17.6784ZM29.8026 24.3817C29.8076 24.6364 29.7096 24.8819 29.5315 25.0603L23.7714 30.9939C23.6025 31.1682 23.3723 31.2664 23.1321 31.2664C22.8919 31.2664 22.6617 31.1682 22.4929 30.9939L16.7318 25.0603C16.5538 24.8818 16.4559 24.6362 16.4612 24.3815C16.4665 24.1269 16.5745 23.8857 16.7597 23.715C20.4383 20.5391 25.826 20.5391 29.5046 23.715C29.6896 23.8859 29.7975 24.1271 29.8026 24.3817Z" fill="white"/>
</svg>
